#!OML:ASF F:\VICON\USERDATA\INSTALL\rory3\rory3.ASF
:FULLY-SPECIFIED
:DEGREES
2951
root -1.40506 17.9414 0.418766 -176.453 153.258 -179.36
lowerback 3.29717 -3.35017 -3.15509
upperback -0.0769141 -4.54952 2.14978
thorax -1.50349 -2.24373 4.17142
lowerneck -25.1242 -9.53725 -12.4963
upperneck 19.3471 -10.7109 8.19887
head 11.5845 -4.77415 3.14266
rclavicle -5.36719e-015 2.34566e-014
rhumerus -30.2211 -27.311 -45.0041
rradius 32.5543
rwrist 13.168
rhand -24.0364 -6.14197
rfingers 7.12502
rthumb 2.44224 -36.1077
lclavicle -5.36719e-015 2.34566e-014
lhumerus -24.1062 22.9991 47.8106
lradius 21.413
lwrist -12.5559
lhand -14.0317 30.3301
lfingers 7.12502
lthumb 12.0986 1139.96
rfemur -15.4532 -2.72205 25.0524
rtibia 28.7613
rfoot -15.7287 -7.32246
rtoes 11.2832
lfemur -7.19811 9.47217 -14.4611
ltibia 54.124
lfoot 15.5437 -8.34303
ltoes -26.6932
2952
root -1.383 17.9403 0.455534 -176.665 153.663 -179.508
lowerback 3.29794 -3.30511 -3.04717
upperback -0.0479133 -4.48434 2.19083
thorax -1.48511 -2.21266 4.15031
lowerneck -25.0715 -9.39724 -12.4247
upperneck 19.2617 -10.5126 8.09289
head 11.5084 -4.69531 3.13218
rclavicle 3.08116e-014 1.15295e-014
rhumerus -29.6222 -27.656 -43.3171
rradius 33.0327
rwrist 12.5331
rhand -24.347 -6.34031
rfingers 7.12502
rthumb 2.14222 -36.3093
lclavicle 3.08116e-014 1.15295e-014
lhumerus -23.3522 22.5902 45.9677
lradius 22.3584
lwrist -11.919
lhand -13.6055 31.2067
lfingers 7.12502
lthumb 12.5095 1140.81
rfemur -15.1379 -2.48838 25.1874
rtibia 28.7556
rfoot -16.0062 -7.20283
rtoes 11.7475
lfemur -7.45175 9.22579 -14.0375
ltibia 54.7424
lfoot 15.6795 -9.82772
ltoes -28.9693
2953
root -1.35929 17.9422 0.49151 -176.859 154.012 -179.537
lowerback 3.41724 -3.27141 -3.04426
upperback -0.0998235 -4.44178 2.20451
thorax -1.60847 -2.18766 4.17194
lowerneck -24.8967 -9.23639 -12.4821
upperneck 19.2488 -10.3017 8.14317
head 11.4552 -4.60422 3.20578
rclavicle -7.99611e-014 -6.75868e-015
rhumerus -29.0628 -27.6754 -41.6118
rradius 33.6339
rwrist 11.8254
rhand -25.0234 -6.3142
rfingers 7.12502
rthumb 1.48899 -36.2887
lclavicle -7.99611e-014 -6.75868e-015
lhumerus -22.673 21.9289 44.1168
lradius 23.4128
lwrist -10.7366
lhand -13.4287 31.7781
lfingers 7.12502
lthumb 12.68 1141.37
rfemur -14.7881 -2.28678 25.183
rtibia 28.7409
rfoot -16.2391 -7.02944
rtoes 12.7608
lfemur -7.63079 8.93172 -13.7411
ltibia 55.275
lfoot 15.6608 -10.9803
ltoes -29.969
2954
root -1.33568 17.943 0.524843 -176.988 154.283 -179.476
lowerback 3.50291 -3.25484 -3.13706
upperback -0.174374 -4.42549 2.21815
thorax -1.72675 -2.17477 4.24648
lowerneck -24.8223 -9.09598 -12.5402
upperneck 19.3923 -10.0864 8.07988
head 11.471 -4.52237 3.23593
rclavicle -2.55687e-014 -1.55052e-014
rhumerus -28.4654 -27.6174 -39.8484
rradius 34.2393
rwrist 11.0579
rhand -25.5261 -6.51742
rfingers 7.12502
rthumb 1.00346 -36.4948
lclavicle -2.55687e-014 -1.55052e-014
lhumerus -21.9253 21.3665 42.2775
lradius 24.4279
lwrist -9.44161
lhand -13.6159 32.0956
lfingers 7.12502
lthumb 12.4995 1141.7
rfemur -14.4762 -2.25754 25.0855
rtibia 28.7172
rfoot -16.3347 -6.82525
rtoes 12.9306
lfemur -7.82385 8.58596 -13.5266
ltibia 55.7355
lfoot 16.0033 -11.2591
ltoes -27.4944
2955
root -1.30955 17.9445 0.559254 -177.039 154.592 -179.392
lowerback 3.38454 -3.20852 -3.27933
upperback -0.133948 -4.36626 2.24523
thorax -1.61179 -2.14746 4.3422
lowerneck -24.9612 -9.02456 -12.5245
upperneck 19.4595 -9.93345 7.91837
head 11.4927 -4.4691 3.19986
rclavicle -3.22528e-014 2.70347e-014
rhumerus -27.6545 -27.8174 -38.0988
rradius 34.8316
rwrist 10.146
rhand -25.9309 -7.20087
rfingers 7.12502
rthumb 0.612444 -37.1797
lclavicle -3.22528e-014 2.70347e-014
lhumerus -20.9753 20.9391 40.5157
lradius 25.5028
lwrist -8.24224
lhand -13.7373 32.3144
lfingers 7.12502
lthumb 12.3824 1141.93
rfemur -14.2311 -2.22513 24.9659
rtibia 28.7118
rfoot -16.3795 -6.68949
rtoes 12.4721
lfemur -8.04882 8.3113 -13.3514
ltibia 56.1228
lfoot 16.4329 -11.3896
ltoes -17.4611
2956
root -1.28301 17.945 0.595238 -177.126 154.939 -179.411
lowerback 3.23288 -3.16042 -3.3578
upperback -0.0627471 -4.30052 2.28921
thorax -1.45081 -2.11917 4.41633
lowerneck -25.2476 -8.96979 -12.4991
upperneck 19.6206 -9.80154 7.78681
head 11.5807 -4.41709 3.16658
rclavicle 5.40197e-014 -2.98177e-014
rhumerus -26.7607 -28.0529 -36.3959
rradius 35.4524
rwrist 9.05861
rhand -26.5173 -7.35111
rfingers 7.12502
rthumb 0.0461471 -37.3308
lclavicle 5.40197e-014 -2.98177e-014
lhumerus -19.9541 20.5634 38.7238
lradius 26.6237
lwrist -7.0054
lhand -14.0562 32.8994
lfingers 7.12502
lthumb 12.075 1142.53
rfemur -13.993 -2.12204 24.955
rtibia 28.7176
rfoot -16.3976 -6.56129
rtoes 12.1434
lfemur -8.21679 8.02452 -13.0777
ltibia 56.4649
lfoot 16.4116 -11.2478
ltoes -14.292
2957
root -1.25617 17.9447 0.626043 -177.278 155.252 -179.376
lowerback 3.34383 -3.11678 -3.41566
upperback -0.152588 -4.2481 2.27003
thorax -1.60809 -2.08707 4.43841
lowerneck -25.1444 -8.85823 -12.5389
upperneck 19.8014 -9.63681 7.71424
head 11.6103 -4.35906 3.18125
rclavicle 4.11981e-014 -1.07344e-014
rhumerus -26.0852 -27.8807 -34.6603
rradius 36.1544
rwrist 7.78201
rhand -26.886 -6.7369
rfingers 7.12502
rthumb -0.310015 -36.7164
lclavicle 4.11981e-014 -1.07344e-014
lhumerus -19.0762 20.1255 36.7504
lradius 27.7556
lwrist -6.00023
lhand -14.1505 33.4852
lfingers 7.12502
lthumb 11.984 1143.12
rfemur -13.6846 -2.08441 24.8683
rtibia 28.7338
rfoot -16.3878 -6.33964
rtoes 12.2222
lfemur -8.27621 7.6957 -12.883
ltibia 56.7609
lfoot 15.3054 -10.8652
ltoes -15.3106
